<svg xmlns="http://www.w3.org/2000/svg" xmlns:xlink="http://www.w3.org/1999/xlink" width="937" height="400" version="1.1" viewBox="0 0 937 400"><title>Group 3</title><desc>Created with Sketch.</desc><defs><linearGradient id="linearGradient-1" x1="50%" x2="50%" y1="0%" y2="100%"><stop offset="0%" stop-color="#7F8A33"/><stop offset="100%" stop-color="#A4A916"/></linearGradient><linearGradient id="linearGradient-2" x1="143.134%" x2="0%" y1="51.787%" y2="50%"><stop offset="0%" stop-color="#7F8A33"/><stop offset="100%" stop-color="#A4A916"/></linearGradient><linearGradient id="linearGradient-3" x1="58.359%" x2="0%" y1="50.402%" y2="50%"><stop offset="0%" stop-color="#2E4B65"/><stop offset="100%" stop-color="#FFF"/></linearGradient><linearGradient id="linearGradient-4" x1="50%" x2="50%" y1="0%" y2="100%"><stop offset="0%" stop-color="#7F8A33"/><stop offset="100%" stop-color="#A4A916"/></linearGradient></defs><g id="Page-1" fill="none" fill-rule="evenodd" stroke="none" stroke-width="1"><g id="Group-3" transform="translate(-2.000000, -5.000000)"><g id="Group-2" stroke-linecap="square" stroke-width="5" transform="translate(48.000000, 41.000000)"><line id="Line" x1=".5" x2=".5" y1=".5" y2="19.5" stroke="url(#linearGradient-1)"/><line id="Line" x1="351.75" x2="297.25" y1="149.25" y2="148.75" stroke="url(#linearGradient-2)"/><line id="Line" x1="516.75" x2="462.25" y1="149.25" y2="148.75" stroke="#7F8A33"/><line id="Line" x1="516.75" x2="462.25" y1="287.25" y2="286.75" stroke="#586C4D"/><line id="Line" x1="351.75" x2="297.25" y1="288.25" y2="287.75" stroke="#2E4B65"/><line id="Line" x1="64.75" x2="10.25" y1="288.25" y2="287.75" stroke="url(#linearGradient-3)"/><path id="Line" stroke="url(#linearGradient-4)" d="M1.13686838e-13,105 L0.596231604,131.367412 C0.529764274,138.004709 1.94718202,142.535395 4.84848485,144.959472 C7.74978767,147.383548 12.9215048,148.358169 20.3636364,147.883335 L64,147.883335"/><path id="Line" stroke="#7F8A33" d="M750.482519,148.988308 L750.965039,169.976616 C751.129545,172.878996 753.342443,175.175793 757.603731,176.867009 C761.86502,178.558225 769.46098,179.238194 780.39161,178.906914 L844.482519,178.906914" transform="translate(797.482519, 163.988308) rotate(-180.000000) translate(-797.482519, -163.988308)"/><path id="Line" stroke="#586C4D" d="M750,258 L750.482519,278.988308 C750.647026,281.890688 752.859924,284.187485 757.121212,285.878701 C761.382501,287.569917 768.97846,288.249885 779.909091,287.918606 L844,287.918606" transform="translate(797.000000, 273.000000) scale(1, -1) rotate(-180.000000) translate(-797.000000, -273.000000)"/></g><text id="启动前" fill="#000" font-family="PingFangSC-Regular, PingFang SC" font-size="24" font-weight="normal"><tspan x="12" y="25">启动前</tspan></text><text id="转变-团队文化" fill="#000" font-family="PingFangSC-Semibold, PingFang SC" font-size="24" font-weight="500"><tspan x="24" y="90">转变</tspan> <tspan x="0" y="123" font-family="PingFangSC-Regular, PingFang SC" font-weight="normal">团队文化</tspan></text><text id="转变-组织架构" fill="#000" font-family="PingFangSC-Semibold, PingFang SC" font-size="24" font-weight="500"><tspan x="868" y="250">转变</tspan> <tspan x="844" y="283" font-family="PingFangSC-Regular, PingFang SC" font-weight="normal">组织架构</tspan></text><text id="转变-团队技能" fill="#000" font-family="PingFangSC-Semibold, PingFang SC" font-size="24" font-weight="500"><tspan x="431" y="177">转变</tspan> <tspan x="407" y="210" font-family="PingFangSC-Regular, PingFang SC" font-weight="normal">团队技能</tspan></text><text id="转变-组织文化" fill="#000" font-family="PingFangSC-Semibold, PingFang SC" font-size="24" font-weight="500"><tspan x="431" y="321">转变</tspan> <tspan x="407" y="354" font-family="PingFangSC-Regular, PingFang SC" font-weight="normal">组织文化</tspan></text><rect id="Rectangle" width="229" height="75" x="114" y="152" fill="#A4A916"/><rect id="Rectangle" width="229" height="75" x="114" y="152" fill="#A4A916"/><text id="专注" fill="#FFF" font-family="PingFangSC-Regular, PingFang SC" font-size="24" font-weight="normal"><tspan x="205" y="198">专注</tspan></text><polygon id="Triangle" fill="#FFF" points="120 183 129 195 111 195" transform="translate(120.000000, 189.000000) rotate(90.000000) translate(-120.000000, -189.000000)"/><g id="Group" transform="translate(567.000000, 152.000000)"><rect id="Rectangle" width="229" height="75" x="0" y="0" fill="#7F8A33"/><text id="专注" fill="#FFF" font-family="PingFangSC-Regular, PingFang SC" font-size="24" font-weight="normal"><tspan x="91" y="46">专注</tspan></text><polygon id="Triangle" fill="#FFF" points="6 32 15 44 -3 44" transform="translate(6.000000, 38.000000) rotate(90.000000) translate(-6.000000, -38.000000)"/></g><g id="Group" transform="translate(567.000000, 291.000000)"><rect id="Rectangle" width="229" height="75" x="0" y="0" fill="#586C4D" transform="translate(114.500000, 37.500000) scale(-1, 1) translate(-114.500000, -37.500000)"/><text id="优化" fill="#FFF" font-family="PingFangSC-Regular, PingFang SC" font-size="24" font-weight="normal"><tspan x="91" y="46">优化</tspan></text><polygon id="Triangle" fill="#FFF" points="223 32 232 44 214 44" transform="translate(223.000000, 38.000000) scale(-1, 1) rotate(90.000000) translate(-223.000000, -38.000000)"/></g><rect id="Rectangle" width="229" height="75" x="114" y="291" fill="#2E4B65" transform="translate(228.500000, 328.500000) scale(-1, 1) translate(-228.500000, -328.500000)"/><text id="优化" fill="#FFF" font-family="PingFangSC-Regular, PingFang SC" font-size="24" font-weight="normal"><tspan x="205" y="337">优化</tspan></text><polygon id="Triangle" fill="#FFF" points="337 323 346 335 328 335" transform="translate(337.000000, 329.000000) scale(-1, 1) rotate(90.000000) translate(-337.000000, -329.000000)"/><text id="版权：www.agilefluency." fill="#000" font-family="PingFangSC-Semibold, PingFang SC" font-size="12" font-weight="500"><tspan x="735.01" y="398">版权：www.agilefluency.org</tspan></text><text id="©-Copyright-2016–201" fill="#000" font-family="PingFangSC-Semibold, PingFang SC" font-size="12" font-weight="500"><tspan x="12.442" y="402">© Copyright 2016–2019 Agile Fluency Project, LLC. All rights reserved.</tspan></text></g></g></svg>