<svg xmlns="http://www.w3.org/2000/svg" xmlns:xlink="http://www.w3.org/1999/xlink" width="984" height="392" version="1.1" viewBox="0 0 984 392"><title>esp</title><desc>Created with Sketch.</desc><defs><rect id="path-1" width="74" height="74" x="4" y="4"/><filter id="filter-2" width="113.5%" height="113.5%" x="-6.8%" y="-4.1%" filterUnits="objectBoundingBox"><feMorphology in="SourceAlpha" operator="dilate" radius="1" result="shadowSpreadOuter1"/><feOffset dx="0" dy="2" in="shadowSpreadOuter1" result="shadowOffsetOuter1"/><feGaussianBlur in="shadowOffsetOuter1" result="shadowBlurOuter1" stdDeviation="1"/><feComposite in="shadowBlurOuter1" in2="SourceAlpha" operator="out" result="shadowBlurOuter1"/><feColorMatrix in="shadowBlurOuter1" type="matrix" values="0 0 0 0 0 0 0 0 0 0 0 0 0 0 0 0 0 0 0.5 0"/></filter><filter id="filter-3" width="113.5%" height="113.5%" x="-6.8%" y="-4.1%" filterUnits="objectBoundingBox"><feGaussianBlur in="SourceAlpha" result="shadowBlurInner1" stdDeviation="1.5"/><feOffset dx="0" dy="1" in="shadowBlurInner1" result="shadowOffsetInner1"/><feComposite in="shadowOffsetInner1" in2="SourceAlpha" k2="-1" k3="1" operator="arithmetic" result="shadowInnerInner1"/><feColorMatrix in="shadowInnerInner1" type="matrix" values="0 0 0 0 0 0 0 0 0 0 0 0 0 0 0 0 0 0 0.5 0"/></filter><rect id="path-4" width="82" height="82" x="0" y="0"/><filter id="filter-5" width="109.8%" height="109.8%" x="-4.9%" y="-2.4%" filterUnits="objectBoundingBox"><feOffset dx="0" dy="2" in="SourceAlpha" result="shadowOffsetOuter1"/><feGaussianBlur in="shadowOffsetOuter1" result="shadowBlurOuter1" stdDeviation="1"/><feColorMatrix in="shadowBlurOuter1" type="matrix" values="0 0 0 0 0 0 0 0 0 0 0 0 0 0 0 0 0 0 0.5 0"/></filter><filter id="filter-6" width="109.8%" height="109.8%" x="-4.9%" y="-2.4%" filterUnits="objectBoundingBox"><feGaussianBlur in="SourceAlpha" result="shadowBlurInner1" stdDeviation="1.5"/><feOffset dx="0" dy="1" in="shadowBlurInner1" result="shadowOffsetInner1"/><feComposite in="shadowOffsetInner1" in2="SourceAlpha" k2="-1" k3="1" operator="arithmetic" result="shadowInnerInner1"/><feColorMatrix in="shadowInnerInner1" type="matrix" values="0 0 0 0 0 0 0 0 0 0 0 0 0 0 0 0 0 0 0.5 0"/></filter><rect id="path-7" width="37" height="37" x="4" y="41"/><filter id="filter-8" width="121.6%" height="121.6%" x="-10.8%" y="-5.4%" filterUnits="objectBoundingBox"><feOffset dx="0" dy="2" in="SourceAlpha" result="shadowOffsetOuter1"/><feGaussianBlur in="shadowOffsetOuter1" result="shadowBlurOuter1" stdDeviation="1"/><feColorMatrix in="shadowBlurOuter1" type="matrix" values="0 0 0 0 0 0 0 0 0 0 0 0 0 0 0 0 0 0 0.5 0"/></filter><filter id="filter-9" width="121.6%" height="121.6%" x="-10.8%" y="-5.4%" filterUnits="objectBoundingBox"><feGaussianBlur in="SourceAlpha" result="shadowBlurInner1" stdDeviation="1.5"/><feOffset dx="0" dy="1" in="shadowBlurInner1" result="shadowOffsetInner1"/><feComposite in="shadowOffsetInner1" in2="SourceAlpha" k2="-1" k3="1" operator="arithmetic" result="shadowInnerInner1"/><feColorMatrix in="shadowInnerInner1" type="matrix" values="0 0 0 0 0 0 0 0 0 0 0 0 0 0 0 0 0 0 0.5 0"/></filter><rect id="path-10" width="37" height="37" x="41" y="4"/><filter id="filter-11" width="121.6%" height="121.6%" x="-10.8%" y="-5.4%" filterUnits="objectBoundingBox"><feOffset dx="0" dy="2" in="SourceAlpha" result="shadowOffsetOuter1"/><feGaussianBlur in="shadowOffsetOuter1" result="shadowBlurOuter1" stdDeviation="1"/><feColorMatrix in="shadowBlurOuter1" type="matrix" values="0 0 0 0 0 0 0 0 0 0 0 0 0 0 0 0 0 0 0.5 0"/></filter><filter id="filter-12" width="121.6%" height="121.6%" x="-10.8%" y="-5.4%" filterUnits="objectBoundingBox"><feGaussianBlur in="SourceAlpha" result="shadowBlurInner1" stdDeviation="1.5"/><feOffset dx="0" dy="1" in="shadowBlurInner1" result="shadowOffsetInner1"/><feComposite in="shadowOffsetInner1" in2="SourceAlpha" k2="-1" k3="1" operator="arithmetic" result="shadowInnerInner1"/><feColorMatrix in="shadowInnerInner1" type="matrix" values="0 0 0 0 0 0 0 0 0 0 0 0 0 0 0 0 0 0 0.5 0"/></filter></defs><g id="Page-1" fill="none" fill-rule="evenodd" stroke="none" stroke-width="1"><g id="esp" transform="translate(-1.000000, 1.000000)"><g id="skillmap" transform="translate(538.000000, 4.000000)"><ellipse id="Oval" cx="12.857" cy="62.483" fill="#50E3C2" rx="12.857" ry="12.839"/><ellipse id="Oval" cx="72.857" cy="88.161" fill="#D8D8D8" rx="12.857" ry="12.839"/><ellipse id="Oval" cx="131.143" cy="12.839" fill="#D8D8D8" rx="12.857" ry="12.839"/><ellipse id="Oval" cx="72.857" cy="37.661" fill="#50E3C2" rx="12.857" ry="11.983"/><path id="Line" fill="#50E3C2" fill-rule="nonzero" d="M60.3710881,41.5301263 L59.5133637,43.0873042 L52.8706359,55.1470168 L52.388166,56.0229293 L50.6363409,55.0579895 L51.1188109,54.1820769 L55.921,45.464 L48.9997395,49.7559594 L27.0983162,63.3329858 L26.2483813,63.8598734 L25.194606,62.1600035 L26.0445409,61.6331159 L47.9459642,48.0560895 L54.865,43.766 L44.9242725,44.1895201 L43.9251774,44.2320524 L43.840113,42.2338622 L44.8392081,42.1913299 L58.594919,41.6057392 L60.3710881,41.5301263 Z"/><path id="Line" fill="#979797" fill-rule="nonzero" d="M26.3698742,61.0832738 L27.1705399,61.6823851 L49.6680279,78.5165032 L56.142,83.361 L52.1218065,74.2596231 L51.7176869,73.344917 L53.5470993,72.5366779 L53.9512188,73.451384 L59.5152055,86.045214 L60.2336402,87.6713583 L58.4708638,87.4408953 L44.8188737,85.6560523 L43.8273119,85.5264168 L44.0865828,83.5432934 L45.0781446,83.6729288 L54.944,84.962 L48.4698052,80.1178346 L25.9723172,63.2837165 L25.1716515,62.6846052 L26.3698742,61.0832738 Z"/><path id="Line" fill="#979797" fill-rule="nonzero" d="M101.897484,15.4716582 L102.896296,15.5203808 L116.648114,16.1912012 L118.423781,16.2778191 L117.427675,17.7503229 L109.713241,29.1542696 L109.152931,29.982553 L107.496365,28.8619343 L108.056674,28.0336508 L113.632,19.791 L106.374402,23.4205424 L86.375785,33.4198509 L85.4813578,33.8670645 L84.5869306,32.0782101 L85.4813578,31.6309965 L105.479975,21.631688 L112.737,18.003 L102.798851,17.5180055 L101.800039,17.4692829 L101.897484,15.4716582 Z"/></g><g id="insights" transform="translate(224.000000, 196.000000)"><ellipse id="Oval" cx="47" cy="16.5" fill="#000" stroke="#000" rx="16.236" ry="16.5"/><ellipse id="Oval" cx="52.127" cy="9.553" fill="#D8D8D8" rx="4.273" ry="4.342"/><ellipse id="Oval" cx="47" cy="16.5" stroke="#979797" stroke-width="2" rx="47" ry="16.5"/></g><g id="starterkit" transform="translate(554.000000, 322.000000)"><rect id="Rectangle" width="56.354" height="69" x="0" y="0" fill="#D8D8D8"/><rect id="Rectangle" width="51.231" height="17.25" x="59.769" y="0" fill="#D8D8D8"/><rect id="Rectangle" width="13.662" height="25.875" x="59.769" y="43.125" fill="#D8D8D8"/><rect id="Rectangle" width="6.831" height="44.85" x="78.554" y="24.15" fill="#D8D8D8"/><rect id="Rectangle" width="6.831" height="44.85" x="90.508" y="24.15" fill="#417505"/><rect id="Rectangle" width="6.831" height="44.85" x="102.462" y="24.15" fill="#7ED321"/><ellipse id="Oval" cx="66.6" cy="31.05" fill="#D8D8D8" stroke="#979797" rx="6.831" ry="6.9"/></g><g id="patterns" transform="translate(567.000000, 171.000000)"><g id="Rectangle"><use fill="#000" fill-opacity="1" filter="url(#filter-2)" xlink:href="#path-1"/><use fill="#050000" fill-rule="evenodd" xlink:href="#path-1" style="mix-blend-mode:darken"/><use fill="#000" fill-opacity="1" filter="url(#filter-3)" xlink:href="#path-1"/><use stroke="#000" stroke-width="2" xlink:href="#path-1"/></g><g id="Rectangle"><use fill="#000" fill-opacity="1" filter="url(#filter-5)" xlink:href="#path-4"/><use fill="#4A4A4A" fill-rule="evenodd" xlink:href="#path-4" style="mix-blend-mode:darken"/><use fill="#000" fill-opacity="1" filter="url(#filter-6)" xlink:href="#path-4"/></g><g id="Rectangle"><use fill="#000" fill-opacity="1" filter="url(#filter-8)" xlink:href="#path-7"/><use fill="#FFF" fill-rule="evenodd" xlink:href="#path-7"/><use fill="#000" fill-opacity="1" filter="url(#filter-9)" xlink:href="#path-7"/></g><g id="Rectangle"><use fill="#000" fill-opacity="1" filter="url(#filter-11)" xlink:href="#path-10"/><use fill="#FFF" fill-rule="evenodd" xlink:href="#path-10"/><use fill="#000" fill-opacity="1" filter="url(#filter-12)" xlink:href="#path-10"/></g></g><g id="measure" transform="translate(227.000000, 317.000000)"><rect id="Rectangle" width="10.302" height="10.308" x="0" y="0" stroke="#979797"/><rect id="Rectangle" width="68.679" height="10.308" x="22.321" y="0" fill="#D8D8D8"/><rect id="Rectangle" width="10.302" height="10.308" x="0" y="18.897" stroke="#979797"/><rect id="Rectangle" width="68.679" height="10.308" x="22.321" y="18.897" fill="#D8D8D8"/><rect id="Rectangle" width="10.302" height="10.308" x="0" y="37.795" stroke="#979797"/><rect id="Rectangle" width="68.679" height="10.308" x="22.321" y="37.795" fill="#D8D8D8"/><rect id="Rectangle" width="10.302" height="10.308" x="0" y="56.692" stroke="#979797"/><rect id="Rectangle" width="68.679" height="10.308" x="22.321" y="56.692" fill="#D8D8D8"/></g><g id="maturity" transform="translate(231.000000, 0.000000)"><rect id="Rectangle" width="87" height="108" x="0" y="0" fill="#28829D" stroke="#000"/><rect id="Rectangle" width="73.353" height="94.286" x="6.824" y="6.857" fill="#FFF" stroke="#000"/><g id="Group-4" transform="translate(18.764706, 18.857143)"><rect id="Rectangle" width="5.118" height="5.143" x="0" y="0" stroke="#979797"/><rect id="Rectangle" width="37.529" height="5.143" x="11.941" y="0" fill="#D8D8D8"/><rect id="Rectangle" width="5.118" height="5.143" x="0" y="10.286" stroke="#979797"/><rect id="Rectangle" width="37.529" height="5.143" x="11.941" y="10.286" fill="#D8D8D8"/><rect id="Rectangle" width="5.118" height="5.143" x="0" y="20.571" stroke="#979797"/><rect id="Rectangle" width="37.529" height="5.143" x="11.941" y="20.571" fill="#D8D8D8"/><rect id="Rectangle" width="5.118" height="5.143" x="0" y="30.857" stroke="#979797"/><rect id="Rectangle" width="37.529" height="5.143" x="11.941" y="30.857" fill="#D8D8D8"/></g><g id="Group-4" transform="translate(18.764706, 58.285714)"><rect id="Rectangle" width="5.118" height="5.143" x="0" y="0" stroke="#979797"/><rect id="Rectangle" width="37.529" height="5.143" x="11.941" y="0" fill="#D8D8D8"/><rect id="Rectangle" width="5.118" height="5.143" x="0" y="10.286" stroke="#979797"/><rect id="Rectangle" width="37.529" height="5.143" x="11.941" y="10.286" fill="#D8D8D8"/><rect id="Rectangle" width="5.118" height="5.143" x="0" y="20.571" stroke="#979797"/><rect id="Rectangle" width="37.529" height="5.143" x="11.941" y="20.571" fill="#D8D8D8"/><rect id="Rectangle" width="5.118" height="5.143" x="0" y="30.857" stroke="#979797"/><rect id="Rectangle" width="37.529" height="5.143" x="11.941" y="30.857" fill="#D8D8D8"/></g></g><text id="Maturity（成熟度）" fill="#000" font-family="PingFangSC-Semibold, PingFang SC" font-size="24" font-weight="500"><tspan x="0" y="66">Maturity（成熟度）</tspan></text><text id="Insights（洞见）" fill="#000" font-family="PingFangSC-Semibold, PingFang SC" font-size="24" font-weight="500"><tspan x="0" y="204">Insights（洞见）</tspan></text><text id="Measure（度量）" fill="#000" font-family="PingFangSC-Semibold, PingFang SC" font-size="24" font-weight="500"><tspan x="0" y="351">Measure（度量）</tspan></text><text id="Capable（能力）" fill="#000" font-family="PingFangSC-Semibold, PingFang SC" font-size="24" font-weight="500"><tspan x="737" y="66">Capable（能力）</tspan></text><text id="Patterns（原则与模式）" fill="#000" font-family="PingFangSC-Semibold, PingFang SC" font-size="24" font-weight="500"><tspan x="737" y="213">Patterns（原则与模式）</tspan></text><text id="Starterkit（入门包）" fill="#000" font-family="PingFangSC-Semibold, PingFang SC" font-size="24" font-weight="500"><tspan x="737" y="351">Starterkit（入门包）</tspan></text></g></g></svg>