<svg xmlns="http://www.w3.org/2000/svg" xmlns:xlink="http://www.w3.org/1999/xlink" width="773" height="581" version="1.1" viewBox="0 0 773 581"><title>Group</title><desc>Created with Sketch.</desc><g id="Page-1" fill="none" fill-rule="evenodd" stroke="none" stroke-width="1"><g id="Group" transform="translate(-1.000000, -5.000000)"><polyline id="Line" stroke="#EF5BA1" stroke-linecap="square" stroke-width="3" points="339 51 506.246 51 506.5 168.5 466.5 168.5"/><polyline id="Line" stroke="#EF5BA1" stroke-linecap="square" stroke-width="3" points="339 305 506.246 305 506.5 422.5 466.5 422.5"/><polyline id="Line" stroke="#00BCCD" stroke-linecap="square" stroke-width="3" points="121 179 288.745 179 289 296.5 248.881 296.5" transform="translate(205.000000, 237.750000) scale(-1, 1) translate(-205.000000, -237.750000)"/><polyline id="Line" stroke="#00BCCD" stroke-linecap="square" stroke-width="3" points="121 433 288.745 433 289 550.5 248.881 550.5" transform="translate(205.000000, 491.750000) scale(-1, 1) translate(-205.000000, -491.750000)"/><line id="Line-2" x1="461" x2="772.5" y1="553" y2="552.5" stroke="#00BCCD" stroke-linecap="square" stroke-width="3"/><text id="启动前" fill="#000" font-family="PingFangSC-Regular, PingFang SC" font-size="24" font-weight="normal"><tspan x="303" y="25">启动前</tspan></text><text id="转变-组织文化" fill="#000" font-family="PingFangSC-Semibold, PingFang SC" font-size="24" font-weight="500"><tspan x="533" y="102">转变</tspan> <tspan x="533" y="135" font-family="PingFangSC-Regular, PingFang SC" font-weight="normal">组织文化</tspan></text><text id="转变-组织架构" fill="#000" font-family="PingFangSC-Semibold, PingFang SC" font-size="24" font-weight="500"><tspan x="533" y="359">转变</tspan> <tspan x="533" y="392" font-family="PingFangSC-Regular, PingFang SC" font-weight="normal">组织架构</tspan></text><text id="转变-组织职能" fill="#000" font-family="PingFangSC-Semibold, PingFang SC" font-size="24" font-weight="500"><tspan x="48" y="230">转变</tspan> <tspan x="0" y="263" font-family="PingFangSC-Regular, PingFang SC" font-weight="normal">组织职能</tspan></text><text id="转变-组织节奏" fill="#000" font-family="PingFangSC-Semibold, PingFang SC" font-size="24" font-weight="500"><tspan x="48" y="494">转变</tspan> <tspan x="0" y="527" font-family="PingFangSC-Regular, PingFang SC" font-weight="normal">组织节奏</tspan></text><rect id="Rectangle" width="303" height="64" x="163" y="136" fill="#0078BF" stroke="#EE5BA0" stroke-width="3" rx="32"/><rect id="Rectangle" width="303" height="64" x="163" y="264" fill="#0078BF" stroke="#00BCCD" stroke-width="3" rx="32"/><rect id="Rectangle" width="303" height="64" x="163" y="392" fill="#0078BF" stroke="#EE5BA0" stroke-width="3" rx="32"/><rect id="Rectangle" width="303" height="64" x="163" y="520" fill="#0078BF" stroke="#00BCCD" stroke-width="3" rx="32"/><circle id="Oval" cx="339" cy="51" r="5" fill="#EF5BA1"/><text id="专注" fill="#FFF" font-family="PingFangSC-Regular, PingFang SC" font-size="24" font-weight="normal"><tspan x="296" y="177">专注</tspan></text><text id="执行" fill="#FFF" font-family="PingFangSC-Regular, PingFang SC" font-size="24" font-weight="normal"><tspan x="296" y="304">执行</tspan></text><text id="优化" fill="#FFF" font-family="PingFangSC-Regular, PingFang SC" font-size="24" font-weight="normal"><tspan x="296" y="433">优化</tspan></text><text id="强化" fill="#FFF" font-family="PingFangSC-Regular, PingFang SC" font-size="24" font-weight="normal"><tspan x="296" y="559">强化</tspan></text></g></g></svg>